<svg xmlns="http://www.w3.org/2000/svg" width="27.992" height="28.006" viewBox="0 0 27.992 28.006"><defs><style>.a{fill:#848484;}</style></defs><g transform="translate(-0.12 -0.001)"><g transform="translate(0.12 0.001)"><path class="a" d="M43.632,166.889h0a5.444,5.444,0,1,0-2.249-4.406A5.45,5.45,0,0,0,43.632,166.889Z" transform="translate(-39.072 -148.242)"/><path class="a" d="M291.708,203.68a4.829,4.829,0,1,0,4.829-4.829A4.835,4.835,0,0,0,291.708,203.68Z" transform="translate(-275.377 -187.714)"/><path class="a" d="M25.766,349.082a6.465,6.465,0,0,1-8.972,0,6.242,6.242,0,0,0-1.639,1.875,6.989,6.989,0,0,0-2.509-3.022,7.079,7.079,0,0,1-9.538,0A6.572,6.572,0,0,0,.12,353.32v3.134H28.112v-2.826A5.75,5.75,0,0,0,25.766,349.082Z" transform="translate(-0.12 -328.448)"/><path class="a" d="M167.527,9.374l3.951-3.932A3.188,3.188,0,0,0,167.518.494a3.188,3.188,0,0,0-3.957,4.951Z" transform="translate(-153.523 -0.001)"/></g></g></svg>