<svg xmlns="http://www.w3.org/2000/svg" width="27.992" height="24.626" viewBox="0 0 27.992 24.626"><defs><style>.a{fill:#848484;fill-rule:evenodd;}</style></defs><path class="a" d="M26.516,33.4a1.936,1.936,0,0,1,1.476,1.881v18.2a1.936,1.936,0,0,1-1.936,1.936H4.4a1.936,1.936,0,0,1-1.9-1.566H23.6a2.92,2.92,0,0,0,2.92-2.92ZM0,50.35c1.812-1.627,8.739-7.843,10.9-9.681a.9.9,0,0,1,1.269.107L22.305,52.865H1.936A1.936,1.936,0,0,1,0,50.93Zm23.589,2.515-6.4-7.636h8.346v5.7A1.936,1.936,0,0,1,23.6,52.865ZM0,49.028v-16.3A1.936,1.936,0,0,1,1.936,30.79H23.6a1.936,1.936,0,0,1,1.936,1.936V44.245H16.361l-3.439-4.1a1.881,1.881,0,0,0-2.661-.224C8.306,41.585,2.448,46.832,0,49.028ZM19.254,34.09a2.94,2.94,0,1,0,2.94,2.94A2.941,2.941,0,0,0,19.254,34.09Zm0,.984A1.955,1.955,0,1,1,17.3,37.03,1.956,1.956,0,0,1,19.254,35.074Z" transform="translate(0 -30.79)"/></svg>