<svg xmlns="http://www.w3.org/2000/svg" width="17.653" height="15.123" viewBox="0 0 17.653 15.123"><defs><style>.a{fill:#fcc4c9;}</style></defs><path class="a" d="M16.694,3.13H2.959A1.965,1.965,0,0,0,1,5.089V14.11a1.965,1.965,0,0,0,1.959,1.965H4.531l1.13,1.765a.871.871,0,0,0,.747.412.894.894,0,0,0,.753-.43l1.071-1.765h8.462a1.965,1.965,0,0,0,1.959-1.948V5.089A1.965,1.965,0,0,0,16.694,3.13Zm-3.925,5.3H6.884a.588.588,0,0,1,0-1.177h5.884a.588.588,0,0,1,0,1.177Zm.588,2.677a.588.588,0,0,1-.588.588H6.884a.588.588,0,1,1,0-1.177h5.884A.588.588,0,0,1,13.357,11.1Z" transform="translate(-1 -3.13)"/></svg>