<svg xmlns="http://www.w3.org/2000/svg" width="27.992" height="27.648" viewBox="0 0 27.992 27.648"><defs><style>.a{fill:#848484;}</style></defs><g transform="translate(0.001)"><path class="a" d="M27.148,66.586H21.657V67.7a.843.843,0,0,1-1.686,0V66.586H8.019V67.7a.843.843,0,0,1-1.686,0V66.586H.842A.843.843,0,0,0,0,67.429V70.95H27.991V67.429a.843.843,0,0,0-.843-.843Zm0,0" transform="translate(0 -62.945)"/><path class="a" d="M175.92,271.647l-.183,2.656,2.454-.894a.847.847,0,0,1,.577,0l2.454.894-.183-2.656a.843.843,0,0,1,.195-.6l1.73-2.065-2.632-.816a.84.84,0,0,1-.45-.335l-1.4-2.085-1.4,2.085a.84.84,0,0,1-.45.335l-2.632.816,1.73,2.065A.842.842,0,0,1,175.92,271.647Zm0,0" transform="translate(-164.484 -251.217)"/><path class="a" d="M0,194.361a.843.843,0,0,0,.843.843H27.149a.843.843,0,0,0,.843-.843V177.246H0Zm7.8-10.275,3.557-1.1L13.3,180.1a.843.843,0,0,1,1.4,0l1.935,2.88,3.557,1.1a.843.843,0,0,1,.4,1.346l-2.325,2.776.249,3.611a.843.843,0,0,1-1.129.85L14,191.437l-3.385,1.232a.843.843,0,0,1-1.129-.85l.249-3.611-2.325-2.776a.843.843,0,0,1,.4-1.346Zm0,0" transform="translate(-0.001 -167.556)"/><path class="a" d="M117.538.843a.843.843,0,1,0-1.686,0V1.955h1.686Zm0,0" transform="translate(-109.519)"/><path class="a" d="M367,.843a.843.843,0,0,0-1.686,0V1.955H367Zm0,0" transform="translate(-345.34)"/></g></svg>