<svg xmlns="http://www.w3.org/2000/svg" width="27.996" height="22.397" viewBox="0 0 27.996 22.397"><defs><style>.a{fill:#848484;}</style></defs><g transform="translate(-0.001 -0.332)"><path class="a" d="M9.856,10.55a2.682,2.682,0,0,1,1.276-2.929A2.593,2.593,0,0,1,14,7.941a2.6,2.6,0,0,1,2.868-.32,2.683,2.683,0,0,1,1.275,2.93L28,6.11V3.831a3.5,3.5,0,0,0-3.5-3.5H3.5A3.5,3.5,0,0,0,0,3.831V6.11Zm0,0" transform="translate(0)"/><path class="a" d="M17.412,116.551c-.967,1.554-2.775,3.316-3.413,3.316s-2.445-1.762-3.413-3.316L0,111.781v11.585a3.5,3.5,0,0,0,3.5,3.5h21a3.5,3.5,0,0,0,3.5-3.5V111.781Zm0,0" transform="translate(0 -104.137)"/><path class="a" d="M174.062,128.992a.728.728,0,0,1-1.145,0,1.376,1.376,0,0,0-1.121-.629,1.109,1.109,0,0,0-.519.125c-.608.323-.755,1.139-.38,2.13a9.462,9.462,0,0,0,2.593,3.2,9.463,9.463,0,0,0,2.593-3.2c.374-.991.228-1.807-.38-2.13A1.288,1.288,0,0,0,174.062,128.992Zm0,0" transform="translate(-159.491 -119.63)"/></g></svg>